<svg xmlns="http://www.w3.org/2000/svg" version="1.1" xmlns:xlink="http://www.w3.org/1999/xlink" xmlns:svgjs="http://svgjs.dev/svgjs" width="1000" height="1000" viewBox="0 0 1000 1000"><rect width="1000" height="1000" fill="#ffffff"></rect><g transform="matrix(0.7,0,0,0.7,149.8005221361796,204.4894736842105)"><svg viewBox="0 0 292 247" data-background-color="#ffffff" preserveAspectRatio="xMidYMid meet" height="845" width="1000" xmlns="http://www.w3.org/2000/svg" xmlns:xlink="http://www.w3.org/1999/xlink"><g id="tight-bounds" transform="matrix(1,0,0,1,0.08321076605079725,-0.09999999999999432)"><svg viewBox="0 0 291.8335784678984 247.2" height="247.2" width="291.8335784678984"><g><svg viewBox="0 0 397.4975999999999 336.7035665870393" height="247.2" width="291.8335784678984"><g><rect width="397.4975999999999" height="10.312785538487251" x="0" y="185.03747853510146" fill="#e8772e" opacity="1" stroke-width="0" stroke="transparent" fill-opacity="1" class="rect-o-0" data-fill-palette-color="secondary" rx="1%" id="o-0" data-palette-color="#e8772e"></rect></g><g transform="matrix(1,0,0,1,0.9887999999999693,222.34708485496895)"><svg viewBox="0 0 395.52 114.35648173207034" height="114.35648173207034" width="395.52"><g id="textblocktransform"><svg viewBox="0 0 395.52 114.35648173207034" height="114.35648173207034" width="395.52" id="textblock"><g><svg viewBox="0 0 395.52 114.35648173207034" height="114.35648173207034" width="395.52"><g transform="matrix(1,0,0,1,0,0)"><svg width="395.52" viewBox="0.4000000059604645 -31.549999237060547 110.83999633789062 32.04999923706055" height="114.35648173207034" data-palette-color="#ba3b0a"><path d="M18.8-31.05L24.5 0 16.15 0 15.2-4.9 9.3-4.9 8.35 0 0.4 0 6.1-31.05 18.8-31.05ZM10.4-10.75L14.25-10.75 12.5-21.85 12.15-21.85 10.4-10.75ZM45.65-31.05L45.15-23.5 39.35-23.5 39.35 0 30.8 0 30.8-23.5 24.65-23.5 25.15-31.05 45.65-31.05ZM64.9-7L64.4 0 47.6 0 47.6-31.05 64.9-31.05 64.4-23.4 56.15-23.4 56.15-18.75 63.3-18.75 63.3-12.15 56.15-12.15 56.15-7 64.9-7ZM75.49-15.23Q75.49-10.8 76.37-8.93 77.24-7.05 79.24-7.05 81.24-7.05 84.89-8L84.89-8 86.19-0.95Q82.24 0.5 78.24 0.5L78.24 0.5Q72.24 0.5 69.52-3.48 66.79-7.45 66.79-15.33 66.79-23.2 69.64-27.38 72.49-31.55 78.94-31.55L78.94-31.55Q82.74-31.55 86.19-29.95L86.19-29.95 84.84-22.2Q80.94-23.5 79.39-23.5L79.39-23.5Q77.19-23.5 76.34-21.58 75.49-19.65 75.49-15.23ZM111.24-31.05L111.24 0 102.74 0 102.74-11.75 96.89-11.75 96.89 0 88.29 0 88.29-31.05 96.89-31.05 96.89-18.85 102.74-18.85 102.74-31.05 111.24-31.05Z" opacity="1" transform="matrix(1,0,0,1,0,0)" fill="#ba3b0a" class="wordmark-text-0" data-fill-palette-color="primary" id="text-0"></path></svg></g></svg></g></svg></g></svg></g><g transform="matrix(1,0,0,1,104.91580570801712,0)"><svg viewBox="0 0 187.66598858396569 158.0406577537212" height="158.0406577537212" width="187.66598858396569"><g><svg xmlns="http://www.w3.org/2000/svg" xmlns:xlink="http://www.w3.org/1999/xlink" version="1.1" x="8" y="0" viewBox="9.397998809814453 12.339999198913574 80.19300842285156 73.82799530029297" enable-background="new 0 0 100 100" xml:space="preserve" height="158.0406577537212" width="171.66598858396569" class="icon-icon-0" data-fill-palette-color="accent" id="icon-0"><g fill="#e8772e" data-fill-palette-color="accent"><path d="M55.894 49.046c0 0.515 0 1.027 0 1.992 0 2.509 1.142 3.675 3.328 3.675 0.708 0 2.05 0 2.757 0 2.606 0 4.379 2.119 4.379 4.375 0 0.386 0 1.611 0 2.318 0 2.509-1.137 4.021-3.795 4.021-0.451 0-2.682 0-3.196 0-2.796 0-4.253-1.278-4.253-3.889 0-0.386 0-1.515 0-2.158 0-2.059-1.479-3.41-3.281-3.41-0.579 0-4.052 0-4.759 0-2.38 0-2.959 1.608-2.959 3.41 0 0.644 0 3.284 0 4.249 0 2.252 1.351 3.024 3.088 3.024 0.836 0 2.03 0 2.931 0 3.31 0 4.9 1.452 4.9 3.77 0 0.772 0 0.379 0 1.601 0 2.634 1.498 3.632 3.881 3.632 1.865 0 4.272 0 4.915 0 2.433 0 3.622-1.284 3.622-3.479 0-0.901 0-1.024 0-1.796 0-3.023 1.676-3.988 4.893-3.988 0.9 0 2.934 0 3.384 0 1.866 0 2.725-1.158 2.725-2.702 0-1.543 0-4.181 0-6.24 0-2.058-1.158-3.023-3.409-3.023-0.966 0-2.896 0-4.054 0-2.419 0-4.588-1.829-4.588-5.21 0-1.094 0-0.898 0-1.992 0-2.509-1.142-3.675-3.329-3.675-0.708 0-2.049 0-2.757 0-2.606 0-4.379-2.118-4.379-4.374 0-0.386 0-1.611 0-2.318 0-2.509 1.138-4.021 3.796-4.021 0.45 0 2.681 0 3.195 0 2.796 0 4.254 1.278 4.254 3.889 0 0.386 0 1.515 0 2.158 0 2.059 1.479 3.409 3.281 3.409 0.579 0 4.05 0 4.758 0 2.38 0 2.959-1.608 2.959-3.409 0-0.644 0-3.284 0-4.249 0-2.251-1.351-3.023-3.088-3.023-0.836 0-2.03 0-2.931 0-3.31 0-4.9-1.452-4.9-3.77 0-0.772 0-0.293 0-1.516 0-2.633-1.425-3.717-3.808-3.717-1.865 0-4.345 0-4.988 0-2.433 0-3.622 1.284-3.622 3.48 0 0.9 0 1.023 0 1.795 0 3.023-1.676 3.988-4.893 3.988-0.9 0-2.935 0-3.385 0-1.865 0-2.724 1.158-2.724 2.702s0 4.181 0 6.24 1.157 3.024 3.41 3.024c0.964 0 2.894 0 4.052 0C53.725 43.836 55.894 45.665 55.894 49.046z" fill="#e8772e" data-fill-palette-color="accent"></path><path d="M86.07 54.482c1.945 0 3.521-1.577 3.521-3.521v-2.688c0-1.945-1.576-3.522-3.521-3.522h-2.688c-1.944 0-3.521 1.577-3.521 3.522v2.688c0 1.945 1.577 3.521 3.521 3.521H86.07z" fill="#e8772e" data-fill-palette-color="accent"></path><path d="M36.547 31.871c1.158 0 2.042 0 3.008 0 2.251 0 3.409-0.965 3.409-3.023 0-0.569 0-1.649 0-1.974 0.113-3.194 2.224-4.658 4.578-4.658 1.157 0 2.043 0 3.008 0 2.253 0 3.41-0.965 3.41-3.023s0-2.607 0-4.151-0.858-2.702-2.724-2.702c-0.45 0-4.795 0-5.695 0-1.846 0-2.631 0.855-2.631 2.782 0 0.708 0 2.047 0 2.434 0 2.195-1.681 4.253-4.171 4.364-1.486 0-3.597 0-4.194 0-1.845 0-2.631 0.855-2.631 2.782 0 0.708 0 2.123 0 2.508 0 2.256-1.771 4.375-4.379 4.375-0.707 0-2.049 0-2.757 0-2.188 0-3.329 1.165-3.329 3.674 0 1.093 0 1.978 0 3.071 0 3.381-2.168 5.21-4.588 5.21-1.158 0-3.088 0-4.054 0-2.251 0-3.409 0.965-3.409 3.023 0 0.267 0 6.5 0 6.766 0 2.059 1.158 3.023 3.409 3.023 0.966 0 2.896 0 4.054 0 2.42 0 4.588 1.049 4.588 4.431 0 1.093 0 1.318 0 2.412 0 2.509 1.142 3.674 3.329 3.674 0.708 0 2.05 0 2.757 0 2.607 0 4.379 2.119 4.379 4.375 0 0.386 0 1.831 0 2.539 0 1.927 0.786 2.782 2.631 2.782 0.6 0 2.726 0 4.213 0l-0.021 0.024c2.491 0.11 4.171 2.169 4.171 4.364 0 0.386 0 1.726 0 2.433 0 1.927 0.785 2.782 2.631 2.782 0.9 0 5.244 0 5.694 0 1.866 0 2.725-1.158 2.725-2.702s0-2.092 0-4.151-1.158-3.024-3.409-3.024c-0.965 0-1.851 0-3.009 0-2.348 0-4.453-1.457-4.576-4.633 0-0.379 0-1.372 0-2.053 0-2.059-1.158-3.023-3.409-3.023-0.966 0-1.85 0-3.008 0-2.421 0-4.59-1.828-4.59-5.209 0-0.515 0-0.667 0-1.633 0-2.509 1.143-3.674 3.33-3.674 0.708 0 2.049 0 2.756 0 2.607 0 4.38-2.119 4.38-4.375 0-0.255 0-3.236 0-3.491 0-2.256-1.772-4.375-4.38-4.375-0.707 0-2.048 0-2.756 0-2.188 0-3.33-1.166-3.33-3.674 0-0.965 0-2.845 0-3.36C31.957 33.411 34.126 31.871 36.547 31.871z" fill="#e8772e" data-fill-palette-color="accent"></path></g></svg></g></svg></g><g></g></svg></g><defs></defs></svg><rect width="291.8335784678984" height="247.2" fill="none" stroke="none" visibility="hidden"></rect></g></svg></g></svg>