<svg xmlns="http://www.w3.org/2000/svg" viewBox="0 0 3000 3000" width="3000" height="3000"><g transform="translate(1968.0 186.0) rotate(0.0 372.5999999999999 1035.0) scale(1.2100545596258765 1.2081524022972405)"><svg width="615.84" height="1713.36" viewBox="0 0 615.84 1713.36"><rect fill="#21a0aa" height="411.29" rx="27" width="335.14" x="9.32" y="126.36"/><rect fill="#fff" height="330.65" rx="25" width="330.65" x="143.31" y="873.62"/><path d="M449 1206.77H168.31a27.54 27.54 0 0 1-27.5-27.5V898.62a27.54 27.54 0 0 1 27.5-27.5H449a27.54 27.54 0 0 1 27.5 27.5v280.65a27.54 27.54 0 0 1-27.5 27.5zM168.31 876.12a22.53 22.53 0 0 0-22.5 22.5v280.65a22.53 22.53 0 0 0 22.5 22.5H449a22.53 22.53 0 0 0 22.5-22.5V898.62a22.53 22.53 0 0 0-22.5-22.5z" fill="#21a0aa"/><rect fill="#fff" height="258.49" rx="25" width="258.49" x="286.47" y="1452.37"/><g fill="#21a0aa"><path d="M520 1713.36H311.47a27.53 27.53 0 0 1-27.5-27.5v-208.49a27.53 27.53 0 0 1 27.5-27.5H520a27.54 27.54 0 0 1 27.5 27.5v208.49a27.54 27.54 0 0 1-27.5 27.5zm-208.53-258.49a22.52 22.52 0 0 0-22.5 22.5v208.49a22.52 22.52 0 0 0 22.5 22.5H520a22.53 22.53 0 0 0 22.5-22.5v-208.49a22.53 22.53 0 0 0-22.5-22.5zm-2.83-578.75a2.5 2.5 0 0 1-2.5-2.5V730.55h-84.91a2.49 2.49 0 0 1-2.5-2.5v-190.4a2.5 2.5 0 0 1 5 0v187.9h84.91a2.5 2.5 0 0 1 2.5 2.5v145.57a2.5 2.5 0 0 1-2.5 2.5zm231.91 126.54H474a2.5 2.5 0 1 1 0-5h64.09v-30.59a2.5 2.5 0 0 1 2.5-2.5h56.07a2.5 2.5 0 0 1 0 5h-53.61v30.59a2.5 2.5 0 0 1-2.5 2.5zm-5.26 101.88H474a2.5 2.5 0 0 1 0-5h61.33a2.5 2.5 0 0 1 0 5zM73.89 1097H19.22a2.5 2.5 0 0 1 0-5h52.17v-24.47a2.5 2.5 0 0 1 2.5-2.5h69.42a2.5 2.5 0 0 1 0 5H76.39v24.47a2.5 2.5 0 0 1-2.5 2.5z"/><circle cx="19.22" cy="1094.49" r="16.72"/><path d="M19.22 1113.71a19.22 19.22 0 1 1 19.22-19.22 19.24 19.24 0 0 1-19.22 19.22zm0-33.44a14.22 14.22 0 1 0 14.22 14.22 14.24 14.24 0 0 0-14.22-14.22z"/><circle cx="535.29" cy="1102.04" r="16.72"/><path d="M535.29 1121.26a19.22 19.22 0 1 1 19.22-19.26 19.24 19.24 0 0 1-19.22 19.26zm0-33.44a14.22 14.22 0 1 0 14.22 14.18 14.24 14.24 0 0 0-14.22-14.18z"/><circle cx="596.62" cy="967.07" r="16.72"/><path d="M596.62 986.29a19.22 19.22 0 1 1 19.22-19.22 19.24 19.24 0 0 1-19.22 19.22zm0-33.44a14.22 14.22 0 1 0 14.22 14.22 14.24 14.24 0 0 0-14.22-14.22zM368.56 467.36h-34.1a2.5 2.5 0 1 1 0-5h31.6V431a2.5 2.5 0 0 1 2.5-2.5H496.5a2.5 2.5 0 0 1 0 5H371.06v31.34a2.5 2.5 0 0 1-2.5 2.52zm-207.91-338.5a2.5 2.5 0 0 1-2.5-2.5V55.1a2.5 2.5 0 1 1 5 0v71.26a2.5 2.5 0 0 1-2.5 2.5zm68.71 0a2.5 2.5 0 0 1-2.5-2.5V70.5a2.5 2.5 0 0 1 2.5-2.5H266V19.22a2.5 2.5 0 0 1 5 0V70.5a2.5 2.5 0 0 1-2.5 2.5h-36.64v53.36a2.5 2.5 0 0 1-2.5 2.5zm146.1 491.68h-95.35a2.5 2.5 0 0 1-2.5-2.5V538a2.5 2.5 0 0 1 5 0v77.52h92.85a2.5 2.5 0 1 1 0 5z"/><circle cx="375.46" cy="618.04" r="16.72"/><path d="M375.46 637.26A19.22 19.22 0 1 1 394.68 618a19.24 19.24 0 0 1-19.22 19.26zm0-33.44A14.22 14.22 0 1 0 389.68 618a14.24 14.24 0 0 0-14.22-14.18z"/><circle cx="496.5" cy="431.02" r="16.72"/><path d="M496.5 450.24A19.22 19.22 0 1 1 515.73 431a19.25 19.25 0 0 1-19.23 19.24zm0-33.44a14.22 14.22 0 1 0 14.23 14.2 14.24 14.24 0 0 0-14.23-14.2z"/><circle cx="268.48" cy="19.22" r="16.72"/><path d="M268.48 38.44a19.22 19.22 0 1 1 19.22-19.22 19.24 19.24 0 0 1-19.22 19.22zm0-33.44a14.22 14.22 0 1 0 14.22 14.22A14.24 14.24 0 0 0 268.48 5z"/><circle cx="160.65" cy="55.1" r="16.72"/><path d="M160.65 74.32a19.22 19.22 0 1 1 19.22-19.22 19.24 19.24 0 0 1-19.22 19.22zm0-33.44a14.22 14.22 0 1 0 14.22 14.22 14.24 14.24 0 0 0-14.22-14.22zm254.83 1411.91a2.5 2.5 0 0 1-2.5-2.5v-115.88H369a2.49 2.49 0 0 1-2.5-2.5v-127.64a2.5 2.5 0 0 1 5 0v125.14h44a2.5 2.5 0 0 1 2.5 2.5v118.38a2.5 2.5 0 0 1-2.52 2.5z"/></g></svg></g><g transform="translate(294.0 570.0) rotate(0.0 367.19999999999993 384.0) scale(1.2004315276733464 1.2003000750187547)"><svg width="611.78" height="639.84" viewBox="0 0 611.78 639.84"><rect fill="#fff" height="450.87" rx="25" width="450.87" x="158.41" y="2.5"/><g fill="#21a0aa"><path d="M584.28 455.87H183.41a27.54 27.54 0 0 1-27.5-27.5V27.5A27.54 27.54 0 0 1 183.41 0h400.87a27.54 27.54 0 0 1 27.5 27.5v400.87a27.54 27.54 0 0 1-27.5 27.5zM183.41 5a22.52 22.52 0 0 0-22.5 22.5v400.87a22.53 22.53 0 0 0 22.5 22.5h400.87a22.53 22.53 0 0 0 22.5-22.5V27.5A22.53 22.53 0 0 0 584.28 5z"/><path d="M354.26 623.69a2.5 2.5 0 0 1-2.5-2.5v-74.08H328a2.5 2.5 0 0 1-2.5-2.5v-91.24a2.5 2.5 0 0 1 5 0v88.74h23.79a2.5 2.5 0 0 1 2.5 2.5v76.58a2.5 2.5 0 0 1-2.53 2.5zM105.59 329.68H18.65a2.5 2.5 0 1 1 0-5h84.44v-52.1a2.5 2.5 0 0 1 2.5-2.5h52.82a2.5 2.5 0 1 1 0 5h-50.32v52.1a2.5 2.5 0 0 1-2.5 2.5zm52.82-210.12H63.13a2.5 2.5 0 1 1 0-5h95.28a2.5 2.5 0 1 1 0 5z"/><circle cx="354.26" cy="621.19" r="16.15"/><path d="M354.26 639.84a18.65 18.65 0 1 1 18.65-18.65 18.67 18.67 0 0 1-18.65 18.65zm0-32.3a13.65 13.65 0 1 0 13.65 13.65 13.66 13.66 0 0 0-13.65-13.65z"/><circle cx="18.65" cy="327.18" r="16.15"/><path d="M18.65 345.82a18.65 18.65 0 1 1 18.64-18.64 18.67 18.67 0 0 1-18.64 18.64zm0-32.29a13.65 13.65 0 1 0 13.64 13.65 13.66 13.66 0 0 0-13.64-13.65z"/><circle cx="63.13" cy="117.06" r="16.15"/><path d="M63.13 135.71a18.65 18.65 0 1 1 18.65-18.65 18.68 18.68 0 0 1-18.65 18.65zm0-32.3a13.65 13.65 0 1 0 13.65 13.65 13.67 13.67 0 0 0-13.65-13.65z"/></g></svg></g><g transform="translate(988.8 2787.6) rotate(0.0 108.0 22.200000000000045) scale(0.33488372093023255 0.33893129770992436)"><svg width="645" height="131" viewBox="0 0 645 131"><ellipse cx="322.5" cy="65.5" fill="#66B0F0" rx="322.5" ry="65.5"/></svg></g><g transform="translate(1981.1999999999998 339.59999999999997) rotate(0.0 201.60000000000014 247.20000000000002) scale(1.2030793101390473 1.202071531036495)"><svg width="335.14" height="411.29" viewBox="0 0 335.14 411.29"><rect fill="#21a0aa" height="411.29" rx="27" width="335.14"/><g fill="#6ce0dc"><path d="M145 206.13a2.49 2.49 0 0 1-2.5-2.5V81.3a18.49 18.49 0 0 0-37 0v122.33a2.5 2.5 0 0 1-5 0V81.3a23.49 23.49 0 0 1 47 0v122.33a2.5 2.5 0 0 1-2.5 2.5z"/><path d="M187 206.13a2.5 2.5 0 0 1-2.5-2.5V60.87a18.49 18.49 0 0 0-37 0v142.76a2.5 2.5 0 0 1-5 0V60.87a23.49 23.49 0 0 1 47 0v142.76a2.5 2.5 0 0 1-2.5 2.5z"/><path d="M229 206.13a2.5 2.5 0 0 1-2.5-2.5V81.3a18.49 18.49 0 1 0-37 0v122.33a2.5 2.5 0 0 1-5 0V81.3a23.49 23.49 0 1 1 47 0v122.33a2.5 2.5 0 0 1-2.5 2.5z"/><path d="M271 206.13a2.5 2.5 0 0 1-2.5-2.5v-72.32a18.49 18.49 0 1 0-37 0v72.32a2.5 2.5 0 0 1-5 0v-72.32a23.49 23.49 0 1 1 47 0v72.32a2.5 2.5 0 0 1-2.5 2.5zM70.36 299.59a2.51 2.51 0 0 1-2.43-1.9L42.41 194.32a23.49 23.49 0 0 1 45.53-11.55l17.55 69.08a2.5 2.5 0 0 1-4.85 1.23L83.09 184a18.48 18.48 0 0 0-35.83 9.1l25.53 103.39a2.51 2.51 0 0 1-1.83 3 2.46 2.46 0 0 1-.6.1z"/><path d="M172.33 373.9c-55.7 0-92.78-27.07-104.4-76.23a2.5 2.5 0 0 1 4.86-1.16c11 46.68 46.39 72.39 99.54 72.39 27 0 51.19-7 68.25-19.64 18.23-13.54 27.87-33 27.87-56.37v-89.26a2.5 2.5 0 0 1 5 0v89.26c0 25-10.34 45.87-29.89 60.39-17.91 13.3-43.21 20.62-71.23 20.62zM103.06 255a2.5 2.5 0 0 1-2.5-2.5v-48.87a2.5 2.5 0 0 1 5 0v48.84a2.5 2.5 0 0 1-2.5 2.53z"/></g></svg></g><g transform="translate(795.6 308.4) rotate(0.0 213.59999999999997 167.39999999999998) scale(1.2014849814377317 1.2028886573491897)"><svg width="355.56" height="278.33" viewBox="0 0 355.56 278.33"><rect fill="#fff" height="273.33" rx="27" width="350.56" x="2.5" y="2.5"/><path d="M326.06 278.33H29.5A29.53 29.53 0 0 1 0 248.83V29.5A29.53 29.53 0 0 1 29.5 0h296.56a29.54 29.54 0 0 1 29.5 29.5v219.33a29.54 29.54 0 0 1-29.5 29.5zM29.5 5A24.53 24.53 0 0 0 5 29.5v219.33a24.53 24.53 0 0 0 24.5 24.5h296.56a24.53 24.53 0 0 0 24.5-24.5V29.5A24.53 24.53 0 0 0 326.06 5z" fill="#21a0aa"/></svg></g><g transform="translate(622.8 357.59999999999997) rotate(0.0 817.1999999999999 1233.0) scale(1.2045990566037734 1.203895818585691)"><svg width="1356.8" height="2048.35" viewBox="0 0 1356.8 2048.35"><path d="M828.27 185.79c.14 11.81-6.83 23.65-19.46 29.82-32.89 16.06-77.8 1.71-77.8 1.71s-10.41 43.36-6.41 73.82c0 0-63.29 28.87-154.81-8.4 0 0 27.85-38.39 63.77-122.85-6.92-31.18-16.39-49.48-18.3-78.09-2.37-35.55 14.47-59.22 50.26-73.37C698.18-4.48 751.2-4.14 773.63 20.61c20.29 22.4 15.29 64.74 22.09 76.66 5.59 9.79 13.44 8.1 13.33 14-.09 5-6 10.78-9.29 13.24.24 34.2 28.24 33.71 28.51 61.28z" fill="#b0dcf7"/><path d="M748.81 95.36c5.08-1.73 17.37-5.61 28.34-13a3.27 3.27 0 0 1 4.6.95c2.58 4 5.61 11.3-2.49 15.36-10 5-27 3.67-31.15-.47a1.74 1.74 0 0 1 .7-2.84zm40.47 60.34a14.38 14.38 0 0 1-5.38 3.09 19.32 19.32 0 0 1-6 .92 21.32 21.32 0 0 1-11.68-3.4 21.85 21.85 0 0 1-4.56-4.18 19.89 19.89 0 0 1-3.09-5.33 17.32 17.32 0 0 1-.4-12 2.25 2.25 0 0 1 4.36.82v.11a17.37 17.37 0 0 0 1.94 8.47 17.13 17.13 0 0 0 2.45 3.51 16.09 16.09 0 0 0 3.2 2.8 18.38 18.38 0 0 0 8.06 2.8 16 16 0 0 0 8.5-1.2l.12-.06a2.24 2.24 0 0 1 2.49 3.66z" fill="#66b0f0"/><circle cx="653.69" cy="128.71" fill="#fff" r="40.81"/><g fill="#66b0f0"><path d="M653.69 172A43.31 43.31 0 1 1 697 128.71 43.35 43.35 0 0 1 653.69 172zm0-81.62A38.31 38.31 0 1 0 692 128.71a38.35 38.35 0 0 0-38.31-38.31z"/><circle cx="653.69" cy="128.71" r="27.05"/><path d="M734.42 21.52c-15.94 3.94-29.13 10.41-37.13 18.21-16.44 16-18.7 37.7-18.7 58.73a2.5 2.5 0 1 0 5 0c0-18.57 1.33-39.69 17.19-55.15s51.51-22.89 74.94-20.19c-.67-.86-1.36-1.7-2.09-2.51-.92-1-1.91-2-2.93-2.91a129.33 129.33 0 0 0-36.28 3.82zM680 161.68a2.5 2.5 0 1 0-5 .39c2.38 29.79 21.17 50.49 54.33 59.86a2.29 2.29 0 0 0 .68.1c.62-3 1-4.71 1-4.71l.26.08a2.18 2.18 0 0 0-.62-.28c-21.6-6.12-47.93-20.68-50.65-55.44zm-58.75 138.79a2.7 2.7 0 0 1-.62-.08 2.51 2.51 0 0 1-1.8-3.05c3.5-13.65 17.59-49.83 24.75-60a2.5 2.5 0 1 1 4.09 2.87c-6.45 9.19-20.22 43.68-24 58.41a2.5 2.5 0 0 1-2.42 1.85z"/></g><circle cx="645.63" cy="238.75" fill="#fff" r="11.87"/><path d="M645.63 253.12A14.37 14.37 0 1 1 660 238.75a14.39 14.39 0 0 1-14.37 14.37zm0-23.74a9.37 9.37 0 1 0 9.37 9.37 9.38 9.38 0 0 0-9.37-9.37zM466 949.57c-47.74-1.74-81.61 12.51-85.41 32.29s41.63 92.24 567.41-61.15c0 0-370.57 32.91-482 28.86zM376.06 520c-48.93-27.67-85.36-28.44-97.78-15.29-11.14 11.8-16.21 92.67 235.18 130.06 0 .01-36.46-57.67-137.4-114.77z" fill="#66b0f0"/><path d="M357.36 511.46A351.89 351.89 0 0 0 331 548.85c-54.74 90.7-41.46 162.65 23.75 181.8 51.28 15.07 99.81-5.11 99.81-5.11s46.34-59.54 58.9-90.76c45-86.67 64.32-315.8 33.13-333-32.18-17.7-189.23 209.68-189.23 209.68z" fill="#b0dcf7"/><path d="M300.87 679.91c17.83 56.4 77.91 112.83 135.51 147.43 137.15 82.4 221.51 84.07 255.44 91.3s31.35-6.06 16.29-15.09c-11-6.61-23-12.89-24-13.41.94.49 12.59 6.27 47.25 12.25 54.45 9.39 27.9-15.67 27.9-15.67 54.48 7.52 16.35-18.83 16.35-18.83 29.11 3.78 26.64-6 6.29-21.23s-78.21-47.13-78.21-47.13c35.65-8.83 10-21.17-14.54-28.26S611 744 560.78 699.1c-45.62-40.76-79.12-67.54-94.74-79.67" fill="#b0dcf7"/><path d="M650.35 808.73a139 139 0 0 1-21.76-1.65 2.5 2.5 0 1 1 .78-4.94c23.15 3.65 46.24.62 73.78-5.06a2.5 2.5 0 1 1 1 4.89c-19.57 4.03-36.97 6.76-53.8 6.76zm125.22 61.65a2.38 2.38 0 0 1-.46 0 288 288 0 0 1-76.89-26.81 2.5 2.5 0 0 1 2.43-4.37A283 283 0 0 0 776 865.43a2.5 2.5 0 0 1-.46 5zm-16.35 18.84a2.09 2.09 0 0 1-.43 0 444.79 444.79 0 0 1-79.62-22.32 2.5 2.5 0 1 1 1.87-4.64 439.19 439.19 0 0 0 78.61 22 2.5 2.5 0 0 1-.43 5zm-75.15 3.42a2.39 2.39 0 0 1-.9-.17c-7.34-2.84-13.78-5.73-13.84-5.76a2.5 2.5 0 1 1 2-4.56c.06 0 6.38 2.86 13.6 5.66a2.5 2.5 0 0 1-.91 4.83zM608 843.85a2.47 2.47 0 0 1-1.22-.32c-.58-.32-58.73-32.87-116.13-72.18-77.66-53.18-117-93-117-118.19 0-59 42.12-108.2 42.54-108.69a2.5 2.5 0 0 1 3.78 3.28c-.42.47-41.32 48.3-41.32 105.41 0 16.15 19.92 49.05 114.83 114.05 57.21 39.18 115.19 71.63 115.77 71.95a2.5 2.5 0 0 1-1.22 4.69z" fill="#66b0f0"/><circle cx="376.12" cy="653.16" fill="#fff" r="11.87"/><path d="M376.13 667.53a14.37 14.37 0 1 1 14.36-14.37 14.38 14.38 0 0 1-14.36 14.37zm0-23.74a9.37 9.37 0 1 0 9.36 9.37 9.38 9.38 0 0 0-9.36-9.37z" fill="#66b0f0"/><circle cx="608.01" cy="841.35" fill="#fff" r="11.87"/><path d="M608 855.71a14.37 14.37 0 1 1 14.37-14.36A14.37 14.37 0 0 1 608 855.71zm0-23.71a9.37 9.37 0 1 0 9.37 9.37A9.37 9.37 0 0 0 608 832z" fill="#66b0f0"/><path d="M516.13 635c-19.84-34-184.79-172.77-235.7-129.31 35.39-69.91 233.24-258 289.36-222.92 26.98 134.8 6.97 264.42-53.66 352.23z" fill="#fff"/><path d="M516.13 637.47H516a2.51 2.51 0 0 1-2.06-1.24c-7.31-12.54-37.21-42.57-78.25-73.54-26.72-20.17-77.49-55-117.2-61.76-15.88-2.7-28.15-.47-36.47 6.63a2.5 2.5 0 0 1-3.85-3c14.86-29.36 58.87-80.36 109.49-126.92C445.27 324.67 498.6 288.66 534 278.8c15.71-4.37 28.2-3.76 37.12 1.83a2.46 2.46 0 0 1 1.12 1.63c13.28 66.35 15.37 133.65 6 194.62S548.19 593 518.18 636.39a2.47 2.47 0 0 1-2.05 1.08zM306.27 494.82a78 78 0 0 1 13.09 1.18c40.75 6.92 92.28 42.25 119.37 62.7 34 25.69 66.11 55.5 77.45 71.75 28.44-42.33 48.18-95.6 57.16-154.33 9.18-60.07 7.18-126.36-5.78-191.79-7.64-4.3-18.47-4.54-32.21-.71-34.67 9.65-87.26 45.25-144.27 97.67-45.68 42-85.85 87.51-103.75 117.13a46.68 46.68 0 0 1 18.94-3.6zm-53.83 1111.09c-27.34-70.32-77.34-202.91-131.26-152.77-54.09 50.25 79.29 176.15 194.71 255.38 0 0-49.56-66.88-63.45-102.61z" fill="#66b0f0"/><path d="M322.57 1707.08c-21.74 14.06-99.09 60.46-108 64.1-4.84 2-74.75-31.16-71.69-113.43 34.74-29.65 82.48-71.92 118.94-109.15z" fill="#b0dcf7"/><path d="M145.72 1655.19s-88.5 72.4-144.32 109.63c0 0 142.81 154.33 197.68 202.43 29.78 26.1 53.56 29.42 67.54 28.5a.49.49 0 0 1 .06-.12 2.57 2.57 0 0 0 .12-.27c2.14-5 22.31-55.24-1.51-131.8-3.72-11.93-17.36-48.62-42.54-81.75-17.23-22.67-32-41-45.41-54.64-30.34-30.76-9.86-48.75-31.62-71.98z" fill="#fff"/><path d="M147.41 1653.41c23.4 24.56.26 43.14 39.78 79.65 12.46 11.5 34.94 39.29 51.41 69.16 26.3 47 42.81 101.11 37.06 155.26a171.46 171.46 0 0 1-3.9 22.37c-75.55-14.41-109.5-83.84-123.7-120.5-12.24-31.61-30.93-26.7-42.72-50.75-9.85-20.08-.55-34.9-17-56.7a58.56 58.56 0 0 0-37.81-22.5s49.47-32.4 96.88-75.99z" fill="#66b0f0"/><path d="M271.75 1982.36a2.49 2.49 0 0 1-.61-.08c-33.46-6.41-62.45-24.15-86.17-52.73-15.45-18.61-28.65-41.92-39.25-69.28-6.44-16.65-14.8-22.79-22.89-28.74-7-5.11-14.15-10.4-19.75-21.82-4.39-9-5.15-16.92-5.88-24.61-1-10.15-1.87-19.73-10.9-31.68a51.56 51.56 0 0 0-36.57-20.07 2.5 2.5 0 0 1 .42-5 56.55 56.55 0 0 1 40.13 22c9.89 13.08 10.91 23.83 11.9 34.23.72 7.58 1.4 14.73 5.39 22.88 5.06 10.32 11.45 15 18.22 20 8.66 6.37 17.62 13 24.59 31 10.4 26.86 23.33 49.7 38.44 67.89 23 27.71 51.05 44.88 83.39 51.05a2.57 2.57 0 0 1 1.46.85 2.5 2.5 0 0 1-1.92 4.11z" fill="#66b0f0"/><path d="M68.08 1803.06c-7.8 0-17.32-4.56-25.34-12.87-12.18-12.61-15.61-28.4-7.8-35.94 7.81-7.54 23.47-3.56 35.65 9s15.61 28.41 7.8 36a14.43 14.43 0 0 1-10.31 3.81zm-29.67-45.22c-5.6 5.41-2 18.63 7.93 28.88s23 14.34 28.58 8.93 2-18.63-7.93-28.87-23-14.34-28.58-8.94z" fill="#66b0f0"/><path d="M262.56 1998.39c-26.1 0-49.65-15.7-65.13-29.26C143.08 1921.48 2.07 1767.05.65 1765.5a2.5 2.5 0 0 1 .45-3.75c98.16-66.48 142.47-108 142.9-108.38a2.5 2.5 0 0 1 3.44 3.64c-15 14.16-63.68 54.64-141.14 107.25 17.24 18.84 143.77 156.7 194.43 201.11 15.29 13.4 38.71 29 64.2 28 3.59-9 20.33-57.19-2-129-3.14-10.08-23.13-59.93-56.8-102.06a2.5 2.5 0 0 1 3.91-3.12c34.15 42.73 54.47 93.44 57.66 103.7 23.85 76.64 4 127.41 1.47 133.43v.07c-.06.15-.12.27-.17.37v.1a2.54 2.54 0 0 1-2.12 1.47c-1.51.01-2.88.06-4.32.06z" fill="#66b0f0"/><path d="M705 1186.69c16.52-157 4.36-366.94 4.36-366.94s-137-3.58-141.39-23.7l-116.39 10.72S428 915.2 445.71 1085.06c8.62 82.38 7.15 147.23-9.31 175-16.11 27.23-88.3 55.88-137.62 80.1-129.84 69.84-176.36 115.63-176.36 115.63 37.29-25.73 79.59 15.38 102 111.83s91.45 140.9 91.45 140.9C619.31 1539.15 684.74 1284.8 705 1186.69z" fill="#b0dcf7"/><path d="M315.89 1711a2.59 2.59 0 0 1-1.36-.4c-.71-.46-17.78-11.57-37.84-34.75A252.27 252.27 0 0 1 222 1568.19c-14.6-62.77-38.3-104.7-65-115-11.2-4.33-22.35-2.75-33.14 4.7a2.5 2.5 0 0 1-3.17-3.84c16.18-15.93 74-60.67 176.93-116 10-4.92 20.68-9.89 32-15.15 43.21-20.13 92.18-42.93 104.67-64 15.07-25.49 18.18-85.49 9-173.52-17.6-168.32 5.67-278 5.9-279.08a2.5 2.5 0 0 1 2.22-2l116.41-10.72a2.47 2.47 0 0 1 2.67 2c.55 2.53 7.24 11.27 70.12 17.44 34.31 3.36 68.55 4.29 68.89 4.3a2.49 2.49 0 0 1 2.43 2.35c.13 2.1 12 212-4.36 367.34a2.17 2.17 0 0 1 0 .25 813.72 813.72 0 0 1-26.77 99.4 742.89 742.89 0 0 1-61.91 135.54c-69.37 118.46-170.87 215.54-301.68 288.56a2.53 2.53 0 0 1-1.32.24zm-171.12-265.2a38.59 38.59 0 0 1 14 2.69c28.29 10.94 53.11 54.16 68.09 118.56a247.34 247.34 0 0 0 53.46 105.4c16.6 19.21 31.41 30.15 35.68 33.13 129.36-72.49 229.78-168.7 298.45-286 61.5-105 81.49-201.46 88.08-233.31 15.37-146.22 5.7-340.87 4.46-364.13-8.28-.27-37.57-1.37-66.93-4.25-57-5.58-70.5-13.25-73.74-19.22l-112.66 10.42c-2.9 14.79-21.74 119.95-5.46 275.71 6.5 62.13 10.09 143.21-9.65 176.58-13.27 22.43-60.85 44.58-106.86 66-11.27 5.25-21.92 10.21-31.81 15.06-84.35 45.34-138.18 83.48-163.45 104.3a36.86 36.86 0 0 1 8.34-.94z" fill="#66b0f0"/><path d="M550.75 1755.72c-51.58-66.93-103.63-202.76-154.32-138.65s96.39 191.17 276.31 203.38c0 0-99.53-35.59-121.99-64.73z" fill="#66b0f0"/><path d="M676.85 1818.2c-10.43 18.54-40 67.8-47.58 79.4 0 0-112.48 25.74-133.43-39.82 12-51.51 29.85-128.36 41.89-180z" fill="#b0dcf7"/><path d="M495.84 1857.78s-22.5 117.08-34.39 183.4c0 0 205.4 7.9 278.41 1.65 39.62-3.39 58.57-18.29 67.63-29a1.11 1.11 0 0 1 0-.13c0-.06-.06-.16-.11-.28-2.12-5-24.46-54.59-96.46-90.62-11.22-5.61-47.27-21.27-88.78-26.1-28.4-3.31-52.55-2-70.75-8-23.17-7.7-26.98-27.25-55.55-30.92z" fill="#fff"/><path d="M496 1855.29c27.52 4.26 32.65 23.89 57.34 32.88 16 5.83 61.45 2.35 94.54 11.21 52.35 13.7 103 39.37 138.17 81.22a173.65 173.65 0 0 1 13.47 18.4c-63 44.66-126.46 21-162.87 5.73-31.41-13.14-40 4.22-65.59-4-21.38-6.85-25.21-24.74-52.46-28-25.45-2.98-49.6 14.27-49.6 14.27s13.65-78.38 27-131.71z" fill="#66b0f0"/><path d="M722.09 2026.77c-34.53 0-64.71-12.63-84.82-21-16.54-6.93-26.81-5.15-36.74-3.43-8.54 1.47-17.37 3-29.52-.89-9.55-3.06-15.84-8.05-21.91-12.87-8-6.37-15.59-12.38-30.52-14.16-24.08-2.85-45.71 16.2-45.93 16.39a2.5 2.5 0 1 1-3.33-3.72c.95-.85 23.56-20.76 49.85-17.63 16.34 1.94 24.83 8.68 33 15.2 6 4.76 11.64 9.25 20.32 12 11 3.51 18.84 2.16 27.15.72 10.64-1.84 21.64-3.74 39.52 3.74 16.62 7 41.74 17.47 69.95 20.07 32.61 3 61.72-4.91 89-24.22a2.51 2.51 0 0 1 3.75 3 2.53 2.53 0 0 1-1 1.14c-27.07 19.18-54.03 25.66-78.77 25.66z" fill="#66b0f0"/><path d="M515 2032.7c-8.11 0-15.78-1.87-21.59-5.25-6.26-3.65-9.72-8.66-9.73-14.11 0-10.89 13.75-19.45 31.35-19.49h.12c8.11 0 15.78 1.86 21.59 5.25 6.26 3.65 9.72 8.66 9.73 14.1 0 10.9-13.75 19.46-31.35 19.5zm.15-33.85H515c-14.31 0-26.38 6.66-26.36 14.48 0 3.6 2.58 7.08 7.25 9.8 5.06 2.95 11.83 4.57 19.07 4.57h.11c14.3 0 26.38-6.67 26.36-14.48 0-3.6-2.58-7.08-7.25-9.8-5.03-2.95-11.8-4.57-19.04-4.57z" fill="#66b0f0"/><path d="M622 2048.33c-78.93 0-161.42-2.1-162.73-2.13a2.51 2.51 0 0 1-1.87-.92 2.47 2.47 0 0 1-.53-2c11.76-65.59 36.33-184.79 36.57-186a2.5 2.5 0 0 1 4.9 1c-.24 1.18-24.1 116.92-36 183 25.47.62 210 4.84 277.38-.93 20.35-1.74 47.94-7.86 64.93-27-4-8.82-27.2-54.5-94.83-88.34l-2-1c-12.22-6.18-37.64-19-84.1-23.92a2.5 2.5 0 1 1 .52-5c47.38 5 73.35 18.11 85.83 24.42l2 1c71.76 35.92 94.82 85.3 97.57 91.7l.06.13.15.4a2.57 2.57 0 0 1-.38 2.61c-18 21.38-47.63 28.08-69.33 29.93-26.81 2.33-71.89 3.05-118.14 3.05z" fill="#66b0f0"/><path d="m859.71 770.09-352.26 26.7c-3.85 24.45-3.78 49.31-5.07 74-6.25 120.12 110.44 470.09 29.22 566.59-93.09 110.62-132.7 180.34-132.7 180.34 19.58-25 63.62-3.76 106.05 84.11 47 97.38 168.19 118.62 168.19 118.62C959.58 1397 859.71 770.09 859.71 770.09z" fill="#b0dcf7"/><path d="M673.14 1823a2.15 2.15 0 0 1-.43 0c-.3-.05-31.05-5.57-67.12-23-33.36-16.12-78.29-46-102.89-97-26.64-55.16-57.15-89.67-81.62-92.31-8.21-.88-15 2-20.21 8.65a2.5 2.5 0 0 1-4.14-2.77c.4-.7 40.78-71.19 133-180.71 23.15-27.51 31.94-78.75 26.87-156.63-4.46-68.43-19.09-148.57-32-219.27-14.46-78.96-26.9-147.18-24.71-189.29.33-6.33.57-12.78.81-19 .69-18.15 1.4-36.92 4.29-55.24a2.49 2.49 0 0 1 2.28-2.1l352.25-26.7a2.49 2.49 0 0 1 2.66 2.1c.25 1.57 24.88 159.39 14.16 366.91-6.3 121.9-23.39 236.87-50.79 341.71-34.26 131.13-84.84 246.71-150.34 343.53a2.5 2.5 0 0 1-2.07 1.12zm-254.85-217.54a31.2 31.2 0 0 1 3.32.18c12.58 1.36 46.1 13.34 85.59 95.11 24 49.6 67.84 78.82 100.44 94.59a289.05 289.05 0 0 0 64.36 22.34c64.71-96.06 114.74-210.63 148.7-340.56 27.31-104.5 44.35-219.11 50.64-340.66 10-193.48-10.79-343.62-13.75-363.7l-348 26.37c-2.6 17.42-3.28 35.34-3.93 52.7-.24 6.26-.49 12.74-.82 19.1-2.16 41.53 10.84 112.7 24.59 188.05 12.94 70.84 27.6 151.13 32.08 219.84 5.16 79.24-4 131.63-28 160.18-70.36 83.61-110.41 144.33-125.51 168.47a26.24 26.24 0 0 1 10.29-2.01z" fill="#66b0f0"/><path d="M537.11 1432.51a2.49 2.49 0 0 1-2.06-3.91l65.39-95.27a2.5 2.5 0 1 1 4.12 2.83l-65.39 95.27a2.52 2.52 0 0 1-2.06 1.08zm-129.45-144.38a2.5 2.5 0 0 1-1.45-4.54l58.26-41.29a2.5 2.5 0 1 1 2.89 4.08l-58.26 41.29a2.49 2.49 0 0 1-1.44.46zm162 560.37a2.44 2.44 0 0 1-.8-.13 2.49 2.49 0 0 1-1.57-3.17c2-5.79 6-15.22 10.21-25.21 4.65-10.93 9.46-22.23 12.42-30.65a2.5 2.5 0 1 1 4.71 1.66c-3 8.57-7.85 20-12.53 31-4.21 9.89-8.18 19.24-10.08 24.85a2.49 2.49 0 0 1-2.36 1.65z" fill="#66b0f0"/><circle cx="569.66" cy="1846" fill="#fff" r="11.87"/><path d="M569.66 1860.36A14.37 14.37 0 1 1 584 1846a14.38 14.38 0 0 1-14.34 14.36zm0-23.73A9.37 9.37 0 1 0 579 1846a9.38 9.38 0 0 0-9.34-9.37zm-354.36-136.1a2.5 2.5 0 0 1-1.69-4.34c4.51-4.16 13.31-11.19 22.62-18.64 10.08-8.06 20.49-16.39 27.11-22.33a2.5 2.5 0 0 1 3.34 3.72c-6.72 6-17.2 14.41-27.32 22.51-9.25 7.39-18 14.38-22.37 18.42a2.49 2.49 0 0 1-1.69.66z" fill="#66b0f0"/><circle cx="215.3" cy="1698.03" fill="#fff" r="11.87"/><path d="M215.28 1712.4a14.38 14.38 0 1 1 4.05-.58 14.33 14.33 0 0 1-4.05.58zm0-23.74a9.36 9.36 0 1 0 4.48 1.15 9.36 9.36 0 0 0-4.44-1.15zm664.86-745.42-32.61 7.12s-53.08-92.6-69.81-141.92 63.54 9.19 63.54 9.19z" fill="#66b0f0"/><path d="m558.75 295.1 16.08-20.32s55 23 134.93 8.53c2.59-.47 5.21-1 7.85-1.53 9.44-2 19.21-4.46 29.25-7.58 0 0 127.9 193.62 201.15 646.51 0 0-29 12.53-79 22.33-21.61-35.34-39.45-81.93-63.7-122.04 1.68 56 .84 86.94 1.85 129.29-47.85-2.57-112-7.9-173.36-7.09C444 945.69 388 952.38 383 985c0 0 9.16-158.53 42.68-343.78C468.07 406.89 558.75 295.1 558.75 295.1z" fill="#fff"/><path d="M383 987.48h-.26a2.51 2.51 0 0 1-2.24-2.63c.1-1.59 9.55-160.81 42.72-344.08 22-121.33 57.08-209.21 82.66-261.58 27.54-56.34 50.33-84.88 50.94-85.64l16.07-20.31a2.49 2.49 0 0 1 2.92-.75c.54.22 55.33 22.54 133.52 8.37 2.85-.51 5.4-1 7.78-1.51 9.65-2 19.41-4.54 29-7.53a2.51 2.51 0 0 1 2.83 1c.32.49 32.59 49.83 73.34 153.89 37.58 95.93 90.31 259.43 128.19 493.6A2.52 2.52 0 0 1 949 923c-.29.12-29.84 12.75-79.55 22.48a2.5 2.5 0 0 1-2.61-1.15c-10.64-17.43-20.22-37.25-30.36-58.24-8.93-18.48-18.12-37.51-28.39-55.47.71 27.12.83 48.09.95 68.44.09 16.95.19 33 .62 51.14a2.51 2.51 0 0 1-2.63 2.56c-10.89-.59-22.59-1.31-35-2.08-42.62-2.64-90.92-5.63-138.23-5-87.57 1.16-154.13 3.23-194.34 9.58-36 5.69-51.62 14.41-54 30.1a2.5 2.5 0 0 1-2.46 2.12zm192.66-709.7-14.93 18.87c-.23.28-22.89 28.51-50.43 84.91C484.84 433.63 450 521 428.12 641.65 400.7 793.14 389.52 928.16 386.43 971c8.14-10 24.63-16.32 52.28-20.69 40.5-6.4 107.27-8.49 195.05-9.65 47.49-.62 95.9 2.37 138.61 5 11.35.7 22.13 1.37 32.23 1.93-.38-17.12-.47-32.4-.56-48.53-.14-22.69-.27-46.15-1.22-78.05a2.5 2.5 0 0 1 4.63-1.37c12.42 20.55 23.15 42.76 33.53 64.25 9.8 20.27 19.06 39.45 29.23 56.32 41.27-8.22 68.07-18.32 75-21.1-37.76-232.54-90.15-395-127.5-490.39-36.57-93.41-66.22-142.48-72-151.61-9.18 2.79-18.48 5.17-27.66 7.08-2.43.51-5 1-7.92 1.54a289.71 289.71 0 0 1-98.22 1.27c-19.17-3.24-31.81-7.55-36.27-9.22z" fill="#66b0f0"/><path d="M639.08 319.32a249.46 249.46 0 0 1-28.45-1.61c-27.11-3.15-48.87-10.62-55.43-19a2.5 2.5 0 1 1 3.94-3.08c4.74 6.08 22.68 13.74 52.06 17.15 17.89 2.08 53.42 3.92 90.39-7a2.5 2.5 0 1 1 1.41 4.72c-23.13 6.86-45.7 8.82-63.92 8.82zM790.6 557.5c-32.06 21.45-72.1 57-66.42 73.34s93.18 50.55 295.71-165c0-.01-60.89-21.06-229.29 91.66z" fill="#66b0f0"/><path d="M1030 470.61S838.13 264.8 759.62 274.68c-79.37 10-29.54 211.34 48.22 332.23 50.37 78.31 178.58 153.47 291.76 105.84 113.98-118.24-69.6-242.14-69.6-242.14z" fill="#b0dcf7"/><path d="M1030 470.61c15.54-14.47 62.42-43.91 132.3-125.7 13.48-15.78 149.53 89.76 139.32 112.6-38 85-89.4 165.35-157.47 227-96.25 87.2-239.07 33.69-305.59-40" fill="#b0dcf7"/><path d="M1029.93 470.51c-.32-.34-1.49-1.59-3.43-3.63a179 179 0 0 0-20.06 19.68c-9.76 11.13-22.36 28.33-27 47.09a2.51 2.51 0 0 0 1.83 3 3.07 3.07 0 0 0 .6.07 2.5 2.5 0 0 0 2.43-1.9c8.4-34.13 45.11-63.9 45.48-64.2z" fill="#66b0f0"/><path d="M1301.64 457.51c51.47-115 48.42-184.18 53.87-218.43s-7.54-30.92-15.92-15.49c-2.75 5-8.2 12.57-8.67 13.6.44-1 2.14-1.79 6.3-36.71 6.55-54.88-13.51-25.22-13.51-25.22 4.67-54.8-19.66-15.35-19.66-15.35 2.26-29.27-7.35-26.29-21.53-5.18s-43 80.57-43 80.57c-10.67-35.15-21.66-8.92-27.46 16s-14.91 55.63-49.75 93.62" fill="#b0dcf7"/><path d="M1316.06 262.52a2.31 2.31 0 0 0 .89.17 2.51 2.51 0 0 0 2.33-1.61c1.56-4.09 6.88-14.83 12.32-25.37.62-1.77 1.65-5.92 3.24-16.94-6.77 12.64-17.73 33.95-20.23 40.53a2.5 2.5 0 0 0 1.45 3.22zm-29.18-14.33a2.5 2.5 0 0 0 1.54 3.18 2.67 2.67 0 0 0 .82.14 2.49 2.49 0 0 0 2.36-1.69c6.31-18.28 21.13-55.12 32.12-74.77.34-4 .52-7.4.56-10.42l-.1.12c-11.26 16.25-29.99 62.25-37.3 83.44zm-25.49-7.11a2.61 2.61 0 0 0 .9.17 2.52 2.52 0 0 0 2.34-1.59c5.28-13.57 24.67-55.25 39.44-80a87 87 0 0 0 .25-9.88c-15.2 23.25-38.46 73-44.35 88.11a2.49 2.49 0 0 0 1.42 3.19zm-42.74 22.23a2.5 2.5 0 0 0 .94 3.41 2.39 2.39 0 0 0 1.23.33 2.5 2.5 0 0 0 2.18-1.26c4.73-8.32 10.75-19.1 16.48-30.65-.75-2.48-1.51-4.64-2.27-6.53a2.52 2.52 0 0 0-.34.51c-6.21 12.88-13 25.03-18.22 34.19zM1002.23 640.3c-30.74 0-67.09-17.86-108.21-53.21a502 502 0 0 1-57.39-58.6 2.5 2.5 0 0 1 3.9-3.12c1 1.17 95.1 117.39 169.17 109.55 84.06-8.9 142-128.44 193.15-233.9 16.06-33.13 31.23-64.41 46.38-90.59a2.5 2.5 0 0 1 4.33 2.5c-15.06 26-30.2 57.23-46.21 90.27-51.71 106.63-110.35 227.5-197.12 236.69a75.3 75.3 0 0 1-8 .41z" fill="#66b0f0"/><circle cx="1251.4" cy="311.68" fill="#fff" r="11.87"/><path d="M1251.4 326.05a14.37 14.37 0 1 1 14.36-14.37 14.39 14.39 0 0 1-14.36 14.37zm0-23.74a9.37 9.37 0 1 0 9.36 9.37 9.38 9.38 0 0 0-9.36-9.37z" fill="#66b0f0"/><circle cx="1009.96" cy="637.4" fill="#fff" r="11.87"/><path d="M1010 651.77a14.37 14.37 0 1 1 14.37-14.37 14.38 14.38 0 0 1-14.37 14.37zm0-23.73a9.37 9.37 0 1 0 9.37 9.36 9.37 9.37 0 0 0-9.37-9.4z" fill="#66b0f0"/><path d="M1016.41 459.82c-47.63-6.24-157.1 49.18-228.2 99.51-29.4 20.81-55.6 44.56-61.38 60.58-1.33 3.68-1.58 7-.55 9.69 0-.09-.31-.66-.77-1.67-3.16-6.95-15.32-34.83-26.11-75.88-14-53.41-25.79-129.09-12.45-209.95 3.55-21.45 12.94-40.74 27.94-54.06 47.77-42.48 140.94-26.04 301.52 171.78z" fill="#fff"/><path d="M726.28 632.1a2.49 2.49 0 0 1-2.29-1.5l-.06-.13c-.12-.26-.35-.75-.67-1.46v-.06c-3.44-7.54-15.49-35.32-26.26-76.28-13.26-50.42-26.2-127.95-12.49-211 3.8-23 13.74-42.19 28.74-55.52 16.68-14.82 37.11-21.36 60.72-19.44 29.4 2.39 63.53 18 101.44 46.46 42.79 32.09 90.89 80.89 143 145.06a2.5 2.5 0 0 1-2.27 4.06c-45-5.91-152.61 46.83-226.43 99.07-32.83 23.24-55.44 45.44-60.47 59.39-1.16 3.2-1.35 5.87-.56 8a2.51 2.51 0 0 1-1.4 3.2 2.61 2.61 0 0 1-1 .15zm39.78-360.71c-19.06 0-35.68 6.21-49.52 18.5-14.14 12.57-23.54 30.76-27.13 52.61-13.56 82.16-.74 159 12.4 208.9a521.14 521.14 0 0 0 22.62 67.79s0-.09.05-.13c2.57-7.14 13.81-27.46 62.28-61.77a803.92 803.92 0 0 1 123.31-71.2c30.81-14.09 72.31-30.09 100.71-29.22-50.4-61.63-96.95-108.61-138.4-139.69C835.24 289.31 802 274 773.54 271.7q-3.81-.31-7.48-.31zM580.28 562.53a10 10 0 0 1-9.65-7.4A884.67 884.67 0 0 1 547 434.29c-14 30.3-26.6 66.9-38.09 110.88a10 10 0 0 1-19.35-5.06C505.56 479 523.7 431.4 545 394.68a10 10 0 0 1 18.66 4.32c3.34 46.53 12.92 101.54 26.28 150.92a10 10 0 0 1-7.05 12.27 10.24 10.24 0 0 1-2.61.34z" fill="#66b0f0"/><path d="M555.13 508.62c-16.3 0-32.19-3.62-45-10.42a10 10 0 1 1 9.39-17.65c12.56 6.68 29.29 9.41 45.88 7.48a10 10 0 1 1 2.31 19.86 109.11 109.11 0 0 1-12.58.73zm78.3 60.53a10 10 0 0 1-9.76-7.87c-9.89-45.38-12.82-99.69-8.47-157.09a10 10 0 0 1 19.95 1.52c-4.21 55.48-1.42 107.8 8.06 151.31a10 10 0 0 1-7.64 11.9 10.46 10.46 0 0 1-2.14.23z" fill="#66b0f0"/></svg></g><g transform="translate(909.6 356.4) rotate(0.0 99.59999999999997 121.19999999999999) scale(1.228795262476096 1.2253563845920532)"><svg width="162.11" height="197.82" viewBox="0 0 162.11 197.82"><path d="M79.7.29 2 34.83a3.34 3.34 0 0 0-2 3.05v51.87c0 70.51 58 103.44 81.06 108.07 23.06-4.63 81.05-37.56 81.05-108.07V37.88a3.34 3.34 0 0 0-2-3.05L82.41.29a3.28 3.28 0 0 0-2.71 0z" fill="#21a0aa"/><path d="M80 22 18.24 50.74a2.66 2.66 0 0 0-1.58 2.43v41.2c0 56 46.07 82.18 64.4 85.86 18.32-3.68 64.39-29.84 64.39-85.86v-41.2a2.66 2.66 0 0 0-1.58-2.43L82.13 22A2.68 2.68 0 0 0 80 22z" fill="#ffcf2d"/></svg></g><g transform="translate(2493.6 1304.3999999999999) rotate(0.0 -152.4000000000001 136.20000000000005) scale(-0.5954415898759304 0.5938703165128216)"><svg width="511.889" height="458.686" viewBox="0 0 511.889 458.686"><path d="m507.437 297.8-40.516-13.059a120.232 120.232 0 0 0-7.2-33.6l31.649-28.494a6.032 6.032 0 0 0 1.144-8.089l-20.934-30.384a6.032 6.032 0 0 0-7.966-1.812l-37.9 19.422a120.252 120.252 0 0 0-28.835-18.7l2.23-42.51a6.033 6.033 0 0 0-4.911-6.529l-36.288-6.682a6.031 6.031 0 0 0-6.91 4.348l-13.059 40.516a120.247 120.247 0 0 0-33.6 7.2l-28.493-31.648a6.034 6.034 0 0 0-8.09-1.145l-30.388 20.932a6.035 6.035 0 0 0-1.812 7.967l19.423 37.9a120.232 120.232 0 0 0-18.7 28.835l-42.51-2.23a6.033 6.033 0 0 0-6.529 4.911l-6.683 36.287a6.034 6.034 0 0 0 4.352 6.915l40.516 13.059a120.274 120.274 0 0 0 7.2 33.6L200.98 363.3a6.034 6.034 0 0 0-1.144 8.09l20.934 30.384a6.032 6.032 0 0 0 7.966 1.812l37.9-19.422a120.312 120.312 0 0 0 28.835 18.7l-2.23 42.509a6.033 6.033 0 0 0 4.911 6.53l36.288 6.682a6.033 6.033 0 0 0 6.914-4.352l13.059-40.515a120.317 120.317 0 0 0 33.6-7.2l28.493 31.648a6.032 6.032 0 0 0 8.089 1.144l30.384-20.933a6.034 6.034 0 0 0 1.813-7.967l-19.423-37.9a120.232 120.232 0 0 0 18.7-28.835l42.51 2.23a6.033 6.033 0 0 0 6.527-4.905l6.683-36.287a6.034 6.034 0 0 0-4.352-6.913z" fill="#ffcf2d"/><circle cx="346.176" cy="292.972" fill="#9b3c82" r="42"/><path d="M346.342 371.494a79.326 79.326 0 0 1-14.382-1.32 78.126 78.126 0 1 1 14.382 1.32zm-.321-152.042a73.724 73.724 0 1 0 13.466 1.236 74.339 74.339 0 0 0-13.466-1.236z" fill="none"/><path d="m245.546 100.5-32.208-2.383a91.269 91.269 0 0 0-11.317-23.49l18.24-26.669a4.577 4.577 0 0 0-.6-6.169l-20.869-18.66a4.577 4.577 0 0 0-6.2.089l-24.47 21.1a91.234 91.234 0 0 0-24.6-8.629l-5.963-31.746A4.578 4.578 0 0 0 132.77.007l-27.951 1.562a4.578 4.578 0 0 0-4.32 4.446l-2.383 32.208a91.269 91.269 0 0 0-23.49 11.317L47.957 31.3a4.577 4.577 0 0 0-6.169.6l-18.66 20.872a4.577 4.577 0 0 0 .089 6.2l21.1 24.47a91.234 91.234 0 0 0-8.629 24.6L3.943 114a4.578 4.578 0 0 0-3.936 4.789l1.562 27.951a4.578 4.578 0 0 0 4.446 4.32l32.208 2.383a91.269 91.269 0 0 0 11.317 23.49L31.3 203.6a4.577 4.577 0 0 0 .6 6.169l20.869 18.66a4.578 4.578 0 0 0 6.2-.089l24.47-21.1a91.234 91.234 0 0 0 24.6 8.629L114 247.618a4.578 4.578 0 0 0 4.789 3.936l27.951-1.562a4.578 4.578 0 0 0 4.32-4.446l2.383-32.208a91.269 91.269 0 0 0 23.49-11.317l26.669 18.24a4.577 4.577 0 0 0 6.169-.6l18.66-20.869a4.578 4.578 0 0 0-.089-6.2l-21.1-24.47a91.234 91.234 0 0 0 8.629-24.6l31.743-5.958a4.578 4.578 0 0 0 3.936-4.789l-1.562-27.951a4.578 4.578 0 0 0-4.442-4.324z" fill="#ffcf2d"/><circle cx="125.78" cy="125.78" fill="#9b3c82" r="31.866"/><path d="M125.743 185.944a60.184 60.184 0 1 1 3.4-.095 61.766 61.766 0 0 1-3.4.095zm.108-115.328q-1.57 0-3.149.089a55.162 55.162 0 0 0 3.044 110.239q1.55 0 3.113-.087a55.164 55.164 0 0 0-3.008-110.241z" fill="none"/></svg></g><g transform="translate(2389.2 1983.6) rotate(0.0 81.0 111.0) scale(0.2872340425531915 0.2869700103412616)"><svg width="564" height="773.6" viewBox="0 0 564 773.6"><path d="M455.9 179.3c-1.9-38.8-12.3-74.4-29.8-102.7C405.9 44.1 366.5 5.1 292.6.5V0h-23.2v.4C195.6 5.1 156.2 44.1 136 76.6c-17.3 28-27.6 62.9-29.8 101.2v5.5c0 3.3 0 8-.1 13.6 0 11.3-.1 26.3-.1 41.3v68.2l60-5.3v-6.9c0-43.8.1-109.8.2-115.3v-.2c1.8-27.1 9-51.5 20.8-70.5C206.4 77 238 60.8 281 60c43 .8 74.7 17 94 48.2 12.1 19.6 19.4 44.8 21 72.9v124.7l60 17.3v-10c0-112.3 0-130.4-.1-133.8z" fill="#ffcf2d"/><path d="M282 773.6c-155.7 0-282-126.3-282-282V325.8c0-53.1 43.1-96.2 96.2-96.2h371.6c53.1 0 96.2 43.1 96.2 96.2v165.8c0 155.7-126.3 282-282 282z" fill="#21a0aa"/><path d="M346.8 417.4c0-37.1-31-66.9-68.5-64.9-33.5 1.8-60.4 29.3-61.4 62.8-.9 29.2 17.5 54.3 43.5 63.4l-39.2 131c-2 6.7 3 13.5 10 13.5h101.4c7 0 12-6.8 10-13.5l-39.2-131c25.3-8.9 43.4-33 43.4-61.3z" fill="#5b2448"/></svg></g><g transform="translate(597.6 682.8) rotate(0.0 158.39999999999998 158.39999999999998) scale(0.36858338559197307 0.36858338559197307)"><svg width="859.507" height="859.507" viewBox="0 0 859.507 859.507"><g fill="#66B0F0"><path d="M429.753 859.508c-58.012 0-114.294-11.364-167.282-33.776-51.176-21.646-97.135-52.631-136.599-92.096-39.465-39.465-70.45-85.424-92.096-136.6C11.364 544.048 0 487.765 0 429.754S11.364 315.46 33.776 262.471c21.646-51.176 52.631-97.135 92.096-136.6 39.464-39.465 85.423-70.45 136.599-92.096C315.459 11.364 371.742 0 429.753 0c58.012 0 114.294 11.364 167.283 33.776 51.176 21.646 97.135 52.631 136.599 92.096 39.465 39.465 70.45 85.423 92.096 136.6 22.412 52.988 33.776 109.271 33.776 167.282s-11.364 114.294-33.776 167.282c-21.646 51.177-52.631 97.135-92.096 136.6-39.464 39.465-85.423 70.45-136.599 92.096-52.989 22.411-109.27 33.776-167.283 33.776zm0-839.508c-55.321 0-108.981 10.832-159.491 32.196-48.792 20.638-92.614 50.184-130.248 87.818S72.833 221.47 52.196 270.262C30.833 320.772 20 374.433 20 429.754s10.833 108.981 32.196 159.491c20.637 48.792 50.184 92.614 87.818 130.248 37.634 37.635 81.456 67.181 130.248 87.818 50.51 21.364 104.17 32.196 159.491 32.196s108.981-10.832 159.492-32.196c48.792-20.638 92.614-50.184 130.248-87.818s67.181-81.456 87.818-130.248c21.364-50.51 32.196-104.171 32.196-159.491s-10.833-108.981-32.196-159.491c-20.637-48.792-50.184-92.614-87.818-130.248-37.634-37.635-81.456-67.181-130.248-87.818C538.735 30.832 485.074 20 429.753 20z"/><path d="M429.753 859.508c-60.045 0-115.927-45.625-157.349-128.471-40.321-80.644-62.527-187.641-62.527-301.283s22.206-220.64 62.527-301.283C313.827 45.625 369.708 0 429.753 0c60.046 0 115.927 45.625 157.35 128.471 40.321 80.644 62.527 187.641 62.527 301.283s-22.206 220.64-62.527 301.283c-41.423 82.846-97.304 128.471-157.35 128.471zm0-839.508c-25.903 0-51.216 10.303-75.235 30.621-23.952 20.262-45.561 49.463-64.226 86.794-38.959 77.92-60.416 181.741-60.416 292.339s21.456 214.419 60.416 292.339c18.666 37.331 40.274 66.532 64.226 86.794 24.019 20.318 49.332 30.621 75.235 30.621s51.216-10.303 75.235-30.621c23.952-20.262 45.561-49.463 64.226-86.794 38.959-77.92 60.416-181.741 60.416-292.339s-21.456-214.419-60.416-292.339c-18.666-37.331-40.274-66.532-64.226-86.794C480.969 30.303 455.656 20 429.753 20z"/><path d="M105.328 706.815a9.995 9.995 0 0 1-8.533-4.771c-2.888-4.708-1.414-10.865 3.293-13.754 81.228-49.845 201.705-78.432 330.539-78.432 124.61 0 244.367 27.9 328.563 76.548 4.782 2.763 6.419 8.879 3.656 13.661-2.763 4.781-8.877 6.422-13.662 3.655-81.245-46.941-197.354-73.864-318.557-73.864-125.246 0-241.91 27.511-320.079 75.479a9.94 9.94 0 0 1-5.22 1.478zm323.551-457.167c-124.608 0-244.365-27.9-328.563-76.547-4.782-2.764-6.419-8.88-3.656-13.662 2.762-4.782 8.88-6.419 13.661-3.656 81.248 46.942 197.357 73.865 318.558 73.865 125.245 0 241.909-27.511 320.079-75.479 4.708-2.889 10.865-1.413 13.753 3.293 2.888 4.708 1.414 10.865-3.293 13.754-81.229 49.845-201.706 78.432-330.539 78.432zm420.628 190.106H10c-5.523 0-10-4.478-10-10s4.477-10 10-10h839.507c5.523 0 10 4.478 10 10s-4.477 10-10 10z"/><path d="M429.753 859.508c-5.523 0-10-4.478-10-10V10c0-5.522 4.477-10 10-10s10 4.478 10 10v839.508c0 5.522-4.477 10-10 10z"/></g></svg></g></svg>